<?xml version="1.0" encoding="utf-8"?>
<svg width="146px" height="29px" viewBox="0 0 146 29" version="1.1" xmlns:xlink="http://www.w3.org/1999/xlink" xmlns="http://www.w3.org/2000/svg">
  <desc>Created with Lunacy</desc>
  <path d="M62.2159 14.0871C62.2159 19.7345 58.0289 22.3714 54.5391 22.3714C51.7793 22.3714 50.0979 20.6957 49.8441 19.7345L49.8441 20.3239C49.8441 21.4412 48.8924 22.341 47.7501 22.341C46.6402 22.341 45.625 21.4412 45.625 20.3239L45.625 2.01678C45.625 0.930875 46.6085 0 47.7501 0C48.8606 0 49.8123 0.930875 49.8123 2.01678L49.8123 7.60203C49.8441 7.72633 49.8441 7.81921 49.8441 7.94351L49.8441 8.47075C50.4785 7.01229 52.2869 5.83315 54.5391 5.83315C57.9968 5.83315 62.2159 8.56363 62.2159 14.0871ZM72.546 4.14282C71.379 4.14282 70.4331 5.08632 70.4331 6.25027L70.4331 12.12L67.8818 12.12C66.5853 12.12 65.5339 13.1686 65.5339 14.4618C65.5339 15.755 66.5853 16.8036 67.8818 16.8036L70.4331 16.8036L70.4331 22.7496C70.4331 23.9136 71.379 24.8571 72.546 24.8571C73.713 24.8571 74.6589 23.9136 74.6589 22.7496L74.6589 6.25027C74.6589 5.08632 73.713 4.14282 72.546 4.14282ZM81.3629 12.12L83.931 12.12C85.2245 12.12 86.2727 13.1686 86.2727 14.4618C86.2727 15.755 85.2245 16.8036 83.931 16.8036L81.3629 16.8036L81.3629 22.7496C81.3629 23.9139 80.4194 24.8571 79.2551 24.8571C78.0912 24.8571 77.1477 23.9139 77.1477 22.7496L77.1477 6.25027C77.1477 5.08632 78.0912 4.14282 79.2551 4.14282C80.4194 4.14282 81.3629 5.08632 81.3629 6.25027L81.3629 12.12ZM24.6002 8.70372C24.6957 8.35635 24.8863 8.04094 24.8863 7.75679C24.8863 6.65215 23.9965 5.80005 22.9157 5.80005C22.1528 5.80005 21.3584 6.2419 21.1356 6.90433L18.0845 16.4053L14.3026 7.06239C13.9847 6.2419 13.3491 5.80005 12.4274 5.80005C11.5376 5.80005 10.9017 6.2419 10.5519 7.06239L6.77005 16.4053L3.71854 6.90433C3.49608 6.2419 2.70136 5.80005 1.97068 5.80005C0.858012 5.80005 0 6.65215 0 7.75679C0 8.04094 0.159159 8.35635 0.286125 8.70372L4.51325 20.7933C4.86304 21.8347 5.59408 22.3714 6.5154 22.3714C7.37377 22.3714 8.13629 21.8347 8.54974 20.7933L12.4274 11.7655L16.3048 20.7933C16.7179 21.8347 17.4489 22.3714 18.3706 22.3714C19.229 22.3714 19.9918 21.8347 20.3413 20.7933L24.6002 8.70372ZM40.6271 15.6302C42.2488 15.6302 43.1363 15.069 43.1363 13.4459C43.1363 8.60877 38.913 5.80005 35.4243 5.80005C31.9352 5.80005 27.375 8.515 27.375 14.1324C27.375 19.8124 31.6903 22.3714 35.7607 22.3714C37.689 22.3714 39.2192 21.8412 40.3516 21.0296C41.1165 20.3739 41.3307 19.8124 41.3307 19.313C41.3307 18.5327 40.8106 17.909 39.9538 17.909C39.4334 17.909 39.0046 18.1584 38.4539 18.408C37.5358 18.8137 37.0157 19.0637 35.9136 19.0637C33.6795 19.0637 31.9045 17.8465 31.537 15.5681L40.6271 15.6302ZM106.118 21.0974C106.15 20.9392 106.182 20.78 106.182 20.6214L106.182 7.95856C106.182 6.84752 105.167 5.89577 104.056 5.89577C102.914 5.89577 101.963 6.84752 101.963 7.95856L101.963 8.49783C101.328 7.00608 99.5198 5.80005 97.268 5.80005C93.8099 5.80005 89.5908 8.59282 89.5908 14.2423C89.5908 20.0186 93.7785 22.7156 97.268 22.7156C100.027 22.7156 101.709 21.0017 101.963 20.0186L101.963 22.1767C101.963 24.0491 100.535 25.4137 97.9655 25.4137C96.538 25.4137 95.4595 25.033 94.8252 24.8741C94.4129 24.747 94.1587 24.7155 93.9684 24.7155C93.0803 24.7155 92.3188 25.4137 92.3188 26.3659C92.3188 27.1269 92.7947 27.7622 93.6832 28.1433C94.3811 28.4604 95.9668 29.0001 97.9334 29.0001C101.296 29.0001 106.118 27.3498 106.118 22.1767L106.118 21.0974ZM126.091 7.91464L126.091 20.3198C126.091 21.4394 125.076 22.341 123.965 22.341C122.824 22.341 121.872 21.4394 121.872 20.3198L121.872 19.7293C121.618 20.6924 119.937 22.3714 117.177 22.3714C113.688 22.3714 109.5 19.7293 109.5 14.0705C109.5 8.536 113.719 5.80005 117.177 5.80005C119.429 5.80005 121.238 6.98155 121.872 8.44294L121.872 7.91464C121.872 6.82621 122.824 5.89382 123.965 5.89382C125.076 5.89382 126.091 6.82621 126.091 7.91464ZM138.323 22.2919C141.813 22.2919 146 19.6624 146 14.0308C146 8.52287 141.781 5.80005 138.323 5.80005C136.071 5.80005 134.262 6.97588 133.628 8.43026L133.628 7.9045C133.628 6.82128 132.676 5.89337 131.534 5.89337C130.424 5.89337 129.409 6.82128 129.409 7.9045L129.409 26.1599C129.409 27.2741 130.361 28.1714 131.502 28.1714C132.613 28.1714 133.596 27.2741 133.596 26.1599L133.596 20.5903C133.628 20.4981 133.628 20.3738 133.628 20.2502L133.628 19.6624C133.882 20.621 135.564 22.2919 138.323 22.2919ZM137.562 9.26587C139.656 9.26587 141.844 10.8748 141.844 14.0308C141.844 17.2178 139.656 18.7957 137.562 18.7957C135.786 18.7957 133.438 17.5273 133.438 14.0308C133.438 10.5343 135.786 9.26587 137.562 9.26587ZM122.062 14.0706C122.062 10.5573 119.715 9.28271 117.938 9.28271C115.844 9.28271 113.656 10.8994 113.656 14.0706C113.656 17.2729 115.844 18.8585 117.938 18.8585C119.715 18.8585 122.062 17.584 122.062 14.0706ZM58.0603 14.0872C58.0603 10.9223 55.8713 9.30884 53.7776 9.30884C52.0013 9.30884 49.6538 10.5808 49.6538 14.0872C49.6538 17.5935 52.0013 18.8655 53.7776 18.8655C55.8713 18.8655 58.0603 17.2831 58.0603 14.0872ZM98.0291 9.35498C99.8058 9.35498 102.153 10.656 102.153 14.2423C102.153 17.8287 99.8058 19.1297 98.0291 19.1297C95.9351 19.1297 93.7468 17.5112 93.7468 14.2423C93.7468 11.0053 95.9351 9.35498 98.0291 9.35498ZM39.1886 12.7593L31.5371 12.7593C31.8126 10.3562 33.6796 9.35742 35.4243 9.35742C37.1687 9.35742 38.8824 10.3562 39.1886 12.7593Z" id="icon_logo" fill="#0074AD" fill-rule="evenodd" stroke="none" />
</svg>